<svg width="20" height="20" viewBox="0 0 20 20" fill="none" xmlns="http://www.w3.org/2000/svg"><path d="M11.82 20H8.18C7.71011 20 7.30355 19.673 7.203 19.214L6.796 17.33C6.25305 17.0921 5.73822 16.7946 5.261 16.443L3.424 17.028C2.976 17.1709 2.48899 16.9823 2.254 16.575L0.429999 13.424C0.197586 13.0165 0.277657 12.5025 0.622999 12.185L2.048 10.885C1.9832 10.2961 1.9832 9.70189 2.048 9.113L0.622999 7.816C0.277148 7.49837 0.197046 6.98372 0.429999 6.576L2.25 3.423C2.48499 3.0157 2.972 2.82714 3.42 2.97L5.257 3.555C5.50106 3.37416 5.75513 3.20722 6.018 3.055C6.27034 2.91269 6.53004 2.78385 6.796 2.669L7.204 0.787C7.30407 0.327969 7.71019 0.000494393 8.18 0H11.82C12.2898 0.000494393 12.6959 0.327969 12.796 0.787L13.208 2.67C13.4888 2.79352 13.7622 2.93308 14.027 3.088C14.2743 3.23078 14.5133 3.38736 14.743 3.557L16.581 2.972C17.0287 2.82967 17.5151 3.01816 17.75 3.425L19.57 6.578C19.8024 6.98548 19.7223 7.49951 19.377 7.817L17.952 9.117C18.0168 9.70589 18.0168 10.3001 17.952 10.889L19.377 12.189C19.7223 12.5065 19.8024 13.0205 19.57 13.428L17.75 16.581C17.5151 16.9878 17.0287 17.1763 16.581 17.034L14.743 16.449C14.5104 16.6203 14.2687 16.7789 14.019 16.924C13.7568 17.0759 13.4864 17.2131 13.209 17.335L12.796 19.214C12.6955 19.6726 12.2895 19.9996 11.82 20ZM9.996 6C7.78686 6 5.996 7.79086 5.996 10C5.996 12.2091 7.78686 14 9.996 14C12.2051 14 13.996 12.2091 13.996 10C13.996 7.79086 12.2051 6 9.996 6Z" fill="#182233"/></svg>