<svg width="18" height="19" viewBox="0 0 18 19" fill="none" xmlns="http://www.w3.org/2000/svg">
<path d="M10.4472 17.9051C10.786 17.7376 11 17.3951 11 17.0204V11.6999C11 11.4376 11.1054 11.186 11.2929 11.0005L17.414 4.94576C17.789 4.57483 18 4.07135 18 3.54611V0.989151C18 0.442151 17.553 0 17 0H1C0.447 0 0 0.442151 0 0.989151V3.54611C0 4.07135 0.211 4.57483 0.586 4.94576L6.70711 11.0005C6.89464 11.186 7 11.4376 7 11.6999V18.0096C7 18.7449 7.78231 19.2231 8.44721 18.8943L10.4472 17.9051Z" fill="#182233"/>
</svg>
