<svg width="22" height="18" viewBox="0 0 22 18" fill="none" xmlns="http://www.w3.org/2000/svg">
<path d="M20.266 17.9981H1.733C1.37574 17.9981 1.04562 17.8075 0.866994 17.4981C0.688367 17.1887 0.688369 16.8075 0.867 16.4981L10.133 0.498114C10.3118 0.189226 10.6416 -0.000976562 10.9985 -0.000976562C11.3554 -0.000976562 11.6852 0.189226 11.864 0.498114L21.13 16.4981C21.3085 16.8074 21.3086 17.1883 21.1303 17.4977C20.9519 17.807 20.6221 17.9977 20.265 17.9981H20.266ZM11 2.99811L3.469 15.9981H18.533L11 2.99811ZM11.995 11.9991H9.995V6.99811H11.995V11.9991Z" fill="#182233"/>
<path d="M10 13.0001H12V15.0001H10V13.0001Z" fill="#182233"/>
</svg>
